<?xml version="1.0" standalone="no"?><!DOCTYPE svg PUBLIC "-//W3C//DTD SVG 1.1//EN" "http://www.w3.org/Graphics/SVG/1.1/DTD/svg11.dtd"><svg t="1700479949078" class="icon" viewBox="0 0 1747 1024" version="1.1" xmlns="http://www.w3.org/2000/svg" p-id="5327" xmlns:xlink="http://www.w3.org/1999/xlink" width="873.5" height="512"><path d="M1256.287003 213.504473s-132.224992-226.697057-459.676297-132.224992c0 0-264.4799 81.847869-289.668462 365.234147a124.776118 124.776118 0 0 0-69.253587 125.94281s0 94.44215 125.942809 81.847868a758.16973 758.16973 0 0 0 207.790678 220.384959 27.581774 27.581774 0 0 0 18.876464 6.282183c-182.482456-226.697057-138.53709-295.950645-138.53709-295.950645 18.876464-81.847869 151.131371-100.754248 151.131371-100.754247a1636.747965 1636.747965 0 0 0 214.072861-25.128732c94.44215-31.470745 94.44215-170.007835 94.44215-170.007835 50.377124 31.470745 113.348529 195.196397 113.348528 195.196397a323.741825 323.741825 0 0 1 0 220.384959 808.995581 808.995581 0 0 1-75.565686 151.131371 256.492553 256.492553 0 0 0 69.223673-37.723012s132.224992-144.819273 182.482455-264.4799c-6.282183 0-50.377124-232.97924-144.819273-340.045586z m0 0" fill="#07c160" p-id="5328"></path><path d="M1331.762943 352.041563s69.253588 6.312098 113.348529 170.007836c0 0 12.594281 69.253588-100.754248 81.847868l-18.876463-245.543606" fill="#07c160" p-id="5329"></path><path d="M1394.734348 509.455118s81.847869 333.733488-396.704892 447.082016c0 0 12.594281 25.188562 31.470745 25.188562 0 0 421.803709-107.03643 409.299173-478.642507z m0 0" fill="#07c160" p-id="5330"></path><path d="M916.181587 981.755611c0 12.594281 18.876464 31.470745 37.782843 37.782843a59.17218 59.17218 0 0 0 56.659307-6.312099 45.530868 45.530868 0 0 0 25.188562-37.782842 52.381439 52.381439 0 0 0-62.821829-37.782843c-37.932419 0-56.808882 18.906379-56.808883 44.094941z m0 0" fill="#07c160" p-id="5331"></path><path d="M846.898085 729.869992a178.50374 178.50374 0 0 0 245.57352-37.782843 126.630858 126.630858 0 0 1-119.660626 113.348528c6.312098 0-94.44215 12.594281-125.912894-75.565685z m0 0" fill="#07c160" p-id="5332"></path><path d="M278.031466 520.703217l93.006222 75.296449-75.326365 93.006222-92.976306-75.296449z" fill="#07c160" p-id="5333"></path><path d="M94.142998 0l116.250299 94.142998-94.142998 116.220384L0 116.250299z" fill="#07c160" p-id="5334"></path><path d="M1679.6463 478.642506l46.488153 37.663182-37.633267 46.488154-46.518068-37.663182z" fill="#07c160" p-id="5335"></path><path d="M1654.128671 42.06071l93.006222 75.29645-75.326364 93.006222-92.976307-75.29645z" fill="#07c160" p-id="5336"></path></svg>